<svg xmlns="http://www.w3.org/2000/svg" viewBox="-18.00 -92.00 803.50 110.80" width="804" height="111" role="img" aria-label="DB PowerWash">
<path d="M32.50,-70.20 Q43.59,-70.20 51.89,-65.80 Q60.20,-61.41 64.75,-53.45 Q69.30,-45.50 69.30,-35.09 Q69.30,-24.80 64.75,-16.80 Q60.20,-8.80 51.84,-4.39 Q43.50,-0.00 32.50,-0.00 L6.20,-0.00 L6.20,-70.20 L32.50,-70.20 Z M31.41,-14.80 Q41.09,-14.80 46.50,-20.09 Q51.91,-25.41 51.91,-35.09 Q51.91,-44.80 46.50,-50.19 Q41.09,-55.59 31.41,-55.59 L23.30,-55.59 L23.30,-14.80 L31.41,-14.80 Z M121.40,-36.00 Q127.50,-34.70 131.20,-29.95 Q134.90,-25.20 134.90,-19.09 Q134.90,-10.30 128.75,-5.14 Q122.61,-0.00 111.61,-0.00 L78.90,-0.00 L78.90,-70.20 L110.50,-70.20 Q121.20,-70.20 127.25,-65.30 Q133.29,-60.41 133.29,-52.00 Q133.29,-45.80 130.04,-41.69 Q126.79,-37.59 121.40,-36.00 Z M96.00,-41.80 L107.20,-41.80 Q111.40,-41.80 113.65,-43.64 Q115.90,-45.50 115.90,-49.09 Q115.90,-52.70 113.65,-54.59 Q111.40,-56.50 107.20,-56.50 L96.00,-56.50 L96.00,-41.80 Z M108.61,-13.80 Q112.90,-13.80 115.25,-15.75 Q117.61,-17.70 117.61,-21.41 Q117.61,-25.09 115.15,-27.19 Q112.70,-29.30 108.40,-29.30 L96.00,-29.30 L96.00,-13.80 L108.61,-13.80 Z M219.50,-47.59 Q219.50,-41.50 216.69,-36.45 Q213.89,-31.41 208.10,-28.30 Q202.30,-25.20 193.71,-25.20 L183.10,-25.20 L183.10,-0.00 L166.00,-0.00 L166.00,-70.20 L193.71,-70.20 Q202.10,-70.20 207.89,-67.30 Q213.71,-64.41 216.60,-59.30 Q219.50,-54.20 219.50,-47.59 Z M192.39,-38.80 Q197.30,-38.80 199.69,-41.09 Q202.10,-43.41 202.10,-47.59 Q202.10,-51.80 199.69,-54.09 Q197.30,-56.41 192.39,-56.41 L183.10,-56.41 L183.10,-38.80 L192.39,-38.80 Z M253.79,0.80 Q245.61,0.80 239.04,-2.70 Q232.50,-6.20 228.75,-12.70 Q225.00,-19.20 225.00,-27.91 Q225.00,-36.50 228.79,-43.05 Q232.61,-49.59 239.20,-53.09 Q245.79,-56.59 254.00,-56.59 Q262.20,-56.59 268.79,-53.09 Q275.40,-49.59 279.20,-43.05 Q283.00,-36.50 283.00,-27.91 Q283.00,-19.30 279.14,-12.75 Q275.29,-6.20 268.64,-2.70 Q262.00,0.80 253.79,0.80 Z M253.79,-14.00 Q258.70,-14.00 262.15,-17.59 Q265.61,-21.20 265.61,-27.91 Q265.61,-34.59 262.25,-38.19 Q258.90,-41.80 254.00,-41.80 Q249.00,-41.80 245.70,-38.25 Q242.40,-34.70 242.40,-27.91 Q242.40,-21.20 245.65,-17.59 Q248.90,-14.00 253.79,-14.00 Z M372.20,-55.80 L357.10,-0.00 L338.20,-0.00 L329.40,-36.20 L320.31,-0.00 L301.49,-0.00 L286.31,-55.80 L303.40,-55.80 L311.31,-15.91 L320.70,-55.80 L338.81,-55.80 L348.31,-16.09 L356.10,-55.80 L372.20,-55.80 Z M431.30,-28.80 Q431.30,-26.41 431.00,-23.80 L392.30,-23.80 Q392.70,-18.59 395.64,-15.84 Q398.59,-13.09 402.91,-13.09 Q409.30,-13.09 411.80,-18.50 L430.00,-18.50 Q428.59,-13.00 424.94,-8.59 Q421.30,-4.20 415.80,-1.70 Q410.30,0.80 403.50,0.80 Q395.30,0.80 388.89,-2.70 Q382.50,-6.20 378.89,-12.70 Q375.30,-19.20 375.30,-27.91 Q375.30,-36.59 378.84,-43.09 Q382.41,-49.59 388.80,-53.09 Q395.20,-56.59 403.50,-56.59 Q411.59,-56.59 417.89,-53.19 Q424.20,-49.80 427.75,-43.50 Q431.30,-37.20 431.30,-28.80 Z M413.80,-33.30 Q413.80,-37.70 410.80,-40.30 Q407.80,-42.91 403.30,-42.91 Q399.00,-42.91 396.05,-40.41 Q393.09,-37.91 392.41,-33.30 L413.80,-33.30 Z M457.40,-46.50 Q460.40,-51.09 464.90,-53.75 Q469.40,-56.41 474.90,-56.41 L474.90,-38.30 L470.19,-38.30 Q463.80,-38.30 460.60,-35.55 Q457.40,-32.80 457.40,-25.91 L457.40,-0.00 L440.30,-0.00 L440.30,-55.80 L457.40,-55.80 L457.40,-46.50 Z" fill="#0B2A4A"/>
<path d="M577.19,-70.20 L558.90,-0.00 L538.19,-0.00 L526.99,-46.20 L515.40,-0.00 L494.69,-0.00 L476.90,-70.20 L495.19,-70.20 L505.30,-19.09 L517.80,-70.20 L536.60,-70.20 L548.60,-19.09 L558.80,-70.20 L577.19,-70.20 Z M582.39,-28.00 Q582.39,-36.59 585.64,-43.09 Q588.89,-49.59 594.49,-53.09 Q600.10,-56.59 607.00,-56.59 Q612.89,-56.59 617.35,-54.19 Q621.80,-51.80 624.19,-47.91 L624.19,-55.80 L641.30,-55.80 L641.30,-0.00 L624.19,-0.00 L624.19,-7.91 Q621.69,-4.00 617.24,-1.59 Q612.80,0.80 606.89,0.80 Q600.10,0.80 594.49,-2.75 Q588.89,-6.30 585.64,-12.84 Q582.39,-19.41 582.39,-28.00 Z M624.19,-27.91 Q624.19,-34.30 620.64,-38.00 Q617.10,-41.70 612.00,-41.70 Q606.89,-41.70 603.35,-38.05 Q599.80,-34.41 599.80,-28.00 Q599.80,-21.59 603.35,-17.84 Q606.89,-14.09 612.00,-14.09 Q617.10,-14.09 620.64,-17.80 Q624.19,-21.50 624.19,-27.91 Z M676.40,0.80 Q669.09,0.80 663.39,-1.70 Q657.70,-4.20 654.39,-8.55 Q651.09,-12.91 650.70,-18.30 L667.59,-18.30 Q667.90,-15.41 670.29,-13.59 Q672.70,-11.80 676.20,-11.80 Q679.40,-11.80 681.15,-13.05 Q682.90,-14.30 682.90,-16.30 Q682.90,-18.70 680.40,-19.84 Q677.90,-21.00 672.29,-22.41 Q666.29,-23.80 662.29,-25.34 Q658.29,-26.91 655.39,-30.25 Q652.50,-33.59 652.50,-39.30 Q652.50,-44.09 655.14,-48.05 Q657.79,-52.00 662.93,-54.30 Q668.09,-56.59 675.20,-56.59 Q685.70,-56.59 691.75,-51.39 Q697.79,-46.20 698.70,-37.59 L682.90,-37.59 Q682.50,-40.50 680.34,-42.20 Q678.20,-43.91 674.70,-43.91 Q671.70,-43.91 670.09,-42.75 Q668.50,-41.59 668.50,-39.59 Q668.50,-37.20 671.04,-36.00 Q673.59,-34.80 679.00,-33.59 Q685.20,-32.00 689.09,-30.45 Q693.00,-28.91 695.95,-25.45 Q698.90,-22.00 699.00,-16.20 Q699.00,-11.30 696.25,-7.44 Q693.50,-3.59 688.34,-1.39 Q683.20,0.80 676.40,0.80 Z M743.80,-56.41 Q753.39,-56.41 759.19,-50.05 Q765.00,-43.70 765.00,-32.59 L765.00,-0.00 L748.00,-0.00 L748.00,-30.30 Q748.00,-35.91 745.09,-39.00 Q742.20,-42.09 737.30,-42.09 Q732.39,-42.09 729.48,-39.00 Q726.59,-35.91 726.59,-30.30 L726.59,-0.00 L709.50,-0.00 L709.50,-74.00 L726.59,-74.00 L726.59,-48.30 Q729.20,-52.00 733.70,-54.20 Q738.20,-56.41 743.80,-56.41 Z" fill="#0E9BE6"/>
</svg>
