<svg xmlns="http://www.w3.org/2000/svg" viewBox="-13.8 -119.45 168.7 168.7" width="64" height="64" role="img" aria-label="DB PowerWash">
  <rect x="-13.8" y="-119.45" width="168.7" height="168.7" rx="30" fill="#0B2A4A"/>
  <path fill="#FFFFFF" d="M32.50,-70.20 Q43.59,-70.20 51.89,-65.80 Q60.20,-61.41 64.75,-53.45 Q69.30,-45.50 69.30,-35.09 Q69.30,-24.80 64.75,-16.80 Q60.20,-8.80 51.84,-4.39 Q43.50,-0.00 32.50,-0.00 L6.20,-0.00 L6.20,-70.20 L32.50,-70.20 Z M31.41,-14.80 Q41.09,-14.80 46.50,-20.09 Q51.91,-25.41 51.91,-35.09 Q51.91,-44.80 46.50,-50.19 Q41.09,-55.59 31.41,-55.59 L23.30,-55.59 L23.30,-14.80 L31.41,-14.80 Z M121.40,-36.00 Q127.50,-34.70 131.20,-29.95 Q134.90,-25.20 134.90,-19.09 Q134.90,-10.30 128.75,-5.14 Q122.61,-0.00 111.61,-0.00 L78.90,-0.00 L78.90,-70.20 L110.50,-70.20 Q121.20,-70.20 127.25,-65.30 Q133.29,-60.41 133.29,-52.00 Q133.29,-45.80 130.04,-41.69 Q126.79,-37.59 121.40,-36.00 Z M96.00,-41.80 L107.20,-41.80 Q111.40,-41.80 113.65,-43.64 Q115.90,-45.50 115.90,-49.09 Q115.90,-52.70 113.65,-54.59 Q111.40,-56.50 107.20,-56.50 L96.00,-56.50 L96.00,-41.80 Z M108.61,-13.80 Q112.90,-13.80 115.25,-15.75 Q117.61,-17.70 117.61,-21.41 Q117.61,-25.09 115.15,-27.19 Q112.70,-29.30 108.40,-29.30 L96.00,-29.30 L96.00,-13.80 L108.61,-13.80 Z"/>
</svg>
